<mxfile host="app.diagrams.net" modified="2024-06-25T13:19:33.312Z" agent="Mozilla/5.0 (Windows NT 10.0; Win64; x64) AppleWebKit/537.36 (KHTML, like Gecko) Chrome/126.0.0.0 Safari/537.36" etag="Gw2OPpSkWzZ57r4LahxE" version="24.4.4" type="github">
  <diagram id="C5RBs43oDa-KdzZeNtuy" name="Page-1">
    <mxGraphModel dx="1050" dy="541" grid="1" gridSize="10" guides="1" tooltips="1" connect="1" arrows="1" fold="1" page="1" pageScale="1" pageWidth="827" pageHeight="1169" math="0" shadow="0">
      <root>
        <mxCell id="WIyWlLk6GJQsqaUBKTNV-0" />
        <mxCell id="WIyWlLk6GJQsqaUBKTNV-1" parent="WIyWlLk6GJQsqaUBKTNV-0" />
        <mxCell id="n_bgtGZWdlIXAuFnQNqS-7" style="edgeStyle=orthogonalEdgeStyle;rounded=0;orthogonalLoop=1;jettySize=auto;html=1;exitX=0.5;exitY=1;exitDx=0;exitDy=0;" edge="1" parent="WIyWlLk6GJQsqaUBKTNV-1" source="WIyWlLk6GJQsqaUBKTNV-3" target="n_bgtGZWdlIXAuFnQNqS-6">
          <mxGeometry relative="1" as="geometry" />
        </mxCell>
        <mxCell id="WIyWlLk6GJQsqaUBKTNV-3" value="Start" style="rounded=1;whiteSpace=wrap;html=1;fontSize=12;glass=0;strokeWidth=1;shadow=0;" parent="WIyWlLk6GJQsqaUBKTNV-1" vertex="1">
          <mxGeometry x="160" y="80" width="120" height="40" as="geometry" />
        </mxCell>
        <mxCell id="n_bgtGZWdlIXAuFnQNqS-10" value="" style="edgeStyle=orthogonalEdgeStyle;rounded=0;orthogonalLoop=1;jettySize=auto;html=1;" edge="1" parent="WIyWlLk6GJQsqaUBKTNV-1" source="n_bgtGZWdlIXAuFnQNqS-6" target="n_bgtGZWdlIXAuFnQNqS-9">
          <mxGeometry relative="1" as="geometry" />
        </mxCell>
        <mxCell id="n_bgtGZWdlIXAuFnQNqS-18" value="" style="edgeStyle=orthogonalEdgeStyle;rounded=0;orthogonalLoop=1;jettySize=auto;html=1;" edge="1" parent="WIyWlLk6GJQsqaUBKTNV-1" source="n_bgtGZWdlIXAuFnQNqS-6" target="n_bgtGZWdlIXAuFnQNqS-17">
          <mxGeometry relative="1" as="geometry" />
        </mxCell>
        <mxCell id="n_bgtGZWdlIXAuFnQNqS-6" value="guessing the words" style="rounded=1;whiteSpace=wrap;html=1;" vertex="1" parent="WIyWlLk6GJQsqaUBKTNV-1">
          <mxGeometry x="160" y="180" width="120" height="60" as="geometry" />
        </mxCell>
        <mxCell id="n_bgtGZWdlIXAuFnQNqS-13" value="" style="edgeStyle=orthogonalEdgeStyle;rounded=0;orthogonalLoop=1;jettySize=auto;html=1;" edge="1" parent="WIyWlLk6GJQsqaUBKTNV-1" source="n_bgtGZWdlIXAuFnQNqS-9" target="n_bgtGZWdlIXAuFnQNqS-12">
          <mxGeometry relative="1" as="geometry" />
        </mxCell>
        <mxCell id="n_bgtGZWdlIXAuFnQNqS-9" value="If the guess is correct" style="rhombus;whiteSpace=wrap;html=1;rounded=1;" vertex="1" parent="WIyWlLk6GJQsqaUBKTNV-1">
          <mxGeometry x="380" y="145" width="150" height="130" as="geometry" />
        </mxCell>
        <mxCell id="n_bgtGZWdlIXAuFnQNqS-12" value="print the word at the right place in the dash" style="rhombus;whiteSpace=wrap;html=1;rounded=1;" vertex="1" parent="WIyWlLk6GJQsqaUBKTNV-1">
          <mxGeometry x="372.5" y="360" width="165" height="170" as="geometry" />
        </mxCell>
        <mxCell id="n_bgtGZWdlIXAuFnQNqS-20" value="" style="edgeStyle=orthogonalEdgeStyle;rounded=0;orthogonalLoop=1;jettySize=auto;html=1;" edge="1" parent="WIyWlLk6GJQsqaUBKTNV-1" source="n_bgtGZWdlIXAuFnQNqS-17" target="n_bgtGZWdlIXAuFnQNqS-19">
          <mxGeometry relative="1" as="geometry" />
        </mxCell>
        <mxCell id="n_bgtGZWdlIXAuFnQNqS-17" value="If the guess is wrong" style="rhombus;whiteSpace=wrap;html=1;rounded=1;" vertex="1" parent="WIyWlLk6GJQsqaUBKTNV-1">
          <mxGeometry x="150" y="310" width="140" height="130" as="geometry" />
        </mxCell>
        <mxCell id="n_bgtGZWdlIXAuFnQNqS-19" value="printing the hangman stand" style="rhombus;whiteSpace=wrap;html=1;rounded=1;" vertex="1" parent="WIyWlLk6GJQsqaUBKTNV-1">
          <mxGeometry x="155" y="520" width="130" height="130" as="geometry" />
        </mxCell>
      </root>
    </mxGraphModel>
  </diagram>
</mxfile>
